<svg xmlns="http://www.w3.org/2000/svg" width="2500" height="2500" fill="none" viewBox="0 0 2500 2500"><rect width="2499" height="2499" x=".5" y=".5" stroke="#fff" stroke-opacity=".1" rx="1.5"/><path fill="#FFC600" fill-rule="evenodd" d="M2012.01 1382.92L1765.56 727.308L1559.09 1100.87L1246 430L932.908 1100.87L726.438 727.308L479.992 1382.92L87 1070.37L280.189 2191L1246 2061.43L2211.81 2191L2405 1070.37L2012.01 1382.92Z" clip-rule="evenodd"/><path fill="#000" d="M2046.41 1262.92L1790.18 607.308L1575.52 980.869L1250 310L924.482 980.869L709.817 607.308L453.589 1262.92L45 950.374L245.856 2071L1250 1941.43L2254.14 2071L2455 950.374L2046.41 1262.92Z"/><path fill="#FFC600" fill-rule="evenodd" d="M1252.69 955.819C1249.92 942.504 1246.83 943.051 1243.96 956.61C1213.1 1101.94 1032.41 1206.24 1032.41 1384.57C1032.41 1504.19 1129.12 1601.13 1248.41 1601.13C1367.7 1601.13 1464.41 1504.19 1464.41 1384.57C1464.41 1205.91 1283.06 1101.56 1252.69 955.819Z" clip-rule="evenodd"/><path fill="#fff" stroke="#fff" stroke-width="5" d="M1012.91 1788.6C1015.74 1787.09 1017.68 1785.05 1018.73 1782.47C1019.79 1779.9 1019.64 1777.35 1018.3 1774.83C1016.63 1771.69 1014.17 1768.96 1010.92 1766.65L994.865 1775.18C989.514 1778.03 984.1 1779.99 978.624 1781.09C973.149 1782.18 967.911 1781.63 962.912 1779.45C957.913 1777.26 953.404 1772.39 949.387 1764.84C944.532 1755.72 943.024 1746.44 944.86 1736.99C946.697 1727.54 949.085 1717.79 952.023 1707.76C954.962 1697.72 956.973 1687.27 958.056 1676.41C959.139 1665.54 956.333 1653.82 949.638 1641.23C945.788 1634 940.693 1628.03 934.355 1623.33C928.016 1618.62 921.031 1615.17 913.4 1612.97C905.768 1610.77 897.689 1609.82 889.163 1610.11C880.637 1610.41 872.094 1611.62 863.534 1613.74L863.032 1612.8C876.597 1600.35 886.178 1586.48 891.776 1571.2C897.375 1555.91 896.24 1540.88 888.373 1526.1C881.677 1513.51 873.519 1504.63 863.899 1499.45C854.279 1494.27 844.484 1490.1 834.515 1486.92C824.546 1483.74 815.128 1480.27 806.261 1476.51C797.394 1472.75 790.366 1465.99 785.177 1456.24C780.992 1448.37 779.548 1441.67 780.845 1436.14C782.142 1430.61 784.775 1425.88 788.744 1421.96C792.713 1418.03 797.494 1414.69 803.087 1411.92C808.68 1409.15 813.68 1406.59 818.087 1404.25C817.988 1400.27 817.101 1396.7 815.427 1393.56C814.088 1391.04 812.055 1389.5 809.329 1388.93C806.603 1388.36 803.823 1388.83 800.991 1390.33C796.899 1392.51 792.535 1396.64 787.903 1402.73C783.271 1408.83 779.418 1415.82 776.346 1423.7C773.274 1431.59 771.408 1439.85 770.746 1448.47C770.085 1457.09 771.596 1464.86 775.279 1471.79C780.97 1482.48 788.055 1489.92 796.533 1494.09C805.012 1498.26 813.832 1501.74 822.994 1504.54C832.156 1507.34 840.934 1510.75 849.329 1514.76C857.724 1518.77 864.683 1525.97 870.207 1536.35C874.894 1545.16 877.111 1554.07 876.859 1563.08C876.606 1572.09 874.739 1580.35 871.259 1587.85C867.778 1595.35 863.124 1602.16 857.296 1608.28C851.468 1614.4 845.406 1619.14 839.11 1622.48L842.123 1628.15C848.419 1624.8 855.737 1622.43 864.075 1621.02C872.414 1619.62 880.751 1619.73 889.086 1621.35C897.421 1622.98 905.355 1626.12 912.889 1630.8C920.424 1635.47 926.45 1642.05 930.97 1650.55C936.494 1660.93 938.574 1670.72 937.209 1679.92C935.845 1689.12 933.877 1698.13 931.307 1706.96C928.738 1715.79 926.854 1724.96 925.657 1734.48C924.46 1743.99 926.54 1753.78 931.896 1763.85C935.579 1770.77 941.103 1776.41 948.47 1780.77C955.837 1785.12 963.651 1788.24 971.912 1790.1C980.173 1791.97 988.048 1792.73 995.536 1792.38C1003.02 1792.03 1008.81 1790.77 1012.91 1788.6Z"/><path fill="#fff" stroke="#fff" stroke-width="5" d="M1496.88 1788.6C1494.05 1787.09 1492.1 1785.05 1491.05 1782.47C1490 1779.9 1490.14 1777.35 1491.48 1774.83C1493.16 1771.69 1495.62 1768.96 1498.86 1766.65L1514.92 1775.18C1520.27 1778.03 1525.69 1779.99 1531.16 1781.09C1536.64 1782.18 1541.87 1781.63 1546.87 1779.45C1551.87 1777.26 1556.38 1772.39 1560.4 1764.84C1565.25 1755.72 1566.76 1746.44 1564.93 1736.99C1563.09 1727.54 1560.7 1717.79 1557.76 1707.76C1554.82 1697.72 1552.81 1687.27 1551.73 1676.41C1550.65 1665.54 1553.45 1653.82 1560.15 1641.23C1564 1634 1569.09 1628.03 1575.43 1623.33C1581.77 1618.62 1588.75 1615.17 1596.39 1612.97C1604.02 1610.77 1612.1 1609.82 1620.62 1610.11C1629.15 1610.41 1637.69 1611.62 1646.25 1613.74L1646.75 1612.8C1633.19 1600.35 1623.61 1586.48 1618.01 1571.2C1612.41 1555.91 1613.55 1540.88 1621.41 1526.1C1628.11 1513.51 1636.27 1504.63 1645.89 1499.45C1655.51 1494.27 1665.3 1490.1 1675.27 1486.92C1685.24 1483.74 1694.66 1480.27 1703.52 1476.51C1712.39 1472.75 1719.42 1465.99 1724.61 1456.24C1728.79 1448.37 1730.24 1441.67 1728.94 1436.14C1727.64 1430.61 1725.01 1425.88 1721.04 1421.96C1717.07 1418.03 1712.29 1414.69 1706.7 1411.92C1701.11 1409.15 1696.11 1406.59 1691.7 1404.25C1691.8 1400.27 1692.68 1396.7 1694.36 1393.56C1695.7 1391.04 1697.73 1389.5 1700.46 1388.93C1703.18 1388.36 1705.96 1388.83 1708.79 1390.33C1712.89 1392.51 1717.25 1396.64 1721.88 1402.73C1726.51 1408.83 1730.37 1415.82 1733.44 1423.7C1736.51 1431.59 1738.38 1439.85 1739.04 1448.47C1739.7 1457.09 1738.19 1464.86 1734.51 1471.79C1728.82 1482.48 1721.73 1489.92 1713.25 1494.09C1704.77 1498.26 1695.95 1501.74 1686.79 1504.54C1677.63 1507.34 1668.85 1510.75 1660.46 1514.76C1652.06 1518.77 1645.1 1525.97 1639.58 1536.35C1634.89 1545.16 1632.67 1554.07 1632.93 1563.08C1633.18 1572.09 1635.05 1580.35 1638.53 1587.85C1642.01 1595.35 1646.66 1602.16 1652.49 1608.28C1658.32 1614.4 1664.38 1619.14 1670.68 1622.48L1667.66 1628.15C1661.37 1624.8 1654.05 1622.43 1645.71 1621.02C1637.37 1619.62 1629.03 1619.73 1620.7 1621.35C1612.36 1622.98 1604.43 1626.12 1596.9 1630.8C1589.36 1635.47 1583.33 1642.05 1578.82 1650.55C1573.29 1660.93 1571.21 1670.72 1572.58 1679.92C1573.94 1689.12 1575.91 1698.13 1578.48 1706.96C1581.05 1715.79 1582.93 1724.96 1584.13 1734.48C1585.33 1743.99 1583.25 1753.78 1577.89 1763.85C1574.21 1770.77 1568.68 1776.41 1561.32 1780.77C1553.95 1785.12 1546.13 1788.24 1537.87 1790.1C1529.61 1791.97 1521.74 1792.73 1514.25 1792.38C1506.76 1792.03 1500.97 1790.77 1496.88 1788.6Z"/><path fill="#000" fill-rule="evenodd" d="M1228.74 1251.13L1169.41 1395.14H1228.74L1186.35 1499.13L1347.41 1355.13H1262.66L1321.99 1251.13H1228.74Z" clip-rule="evenodd"/></svg>