<svg xmlns="http://www.w3.org/2000/svg" xmlns:xlink="http://www.w3.org/1999/xlink" width="2411" height="1882" version="1.1" viewBox="0 0 2411 1882"><title>favicon</title><desc>Created with Sketch.</desc><defs><polygon id="path-1" points="2002.001 953.785 1745.773 298.178 1531.109 671.738 1205.591 .869 880.072 671.738 665.408 298.178 409.18 953.785 .591 641.243 201.447 1761.869 1205.591 1632.299 2209.734 1761.869 2410.591 641.243"/></defs><g id="favicon" fill="none" fill-rule="evenodd" stroke="none" stroke-width="1"><g id="LOGO"><polygon id="Yellow-Crown" fill="#FFC600" points="1967.599 1073.785 1721.152 418.178 1514.682 791.738 1201.591 120.869 888.499 791.738 682.029 418.178 435.582 1073.785 42.591 761.243 235.779 1881.869 1201.591 1752.299 2167.402 1881.869 2360.591 761.243"/><g id="Black-Crown"><mask id="mask-2" fill="#fff"><use xlink:href="#path-1"/></mask><use fill="#000" xlink:href="#path-1"/></g><g id="Drop" transform="translate(690.000000, 637.000000)"><path id="Path" fill="#FFC600" d="M518.284163,9.68839578 C515.511624,-3.62652528 512.422012,-3.07943802 509.54624,10.4794544 C478.68699,155.805053 298,260.1065 298,438.442161 C298,558.054659 394.707063,655 514,655 C633.292937,655 730,558.054659 730,438.442161 C730,259.781205 548.64937,155.428006 518.284163,9.68839578 Z"/><path id="{" fill="#FFF" fill-rule="nonzero" stroke="#FFF" stroke-width="5" d="M176.236827,883.45829 C179.445264,883.45829 182.118691,882.569203 184.257109,880.788115 C186.395527,879.007026 187.464304,876.691093 187.46344,873.840315 C187.46236,870.276842 186.570047,866.713099 184.786502,863.149086 L166.605358,863.143576 L166.605358,863.143576 C160.544976,863.14174 154.840845,862.33823 149.492963,860.733047 C144.145082,859.127864 139.777151,856.186675 136.389171,851.909482 C133.001191,847.632288 131.305905,841.217523 131.303312,832.665188 C131.30018,822.331117 134.32767,813.423353 140.385782,805.941896 C146.443895,798.460439 153.125871,790.979172 160.431709,783.498093 C167.737548,776.017014 174.41928,767.733965 180.476907,758.648946 C186.534534,749.563926 189.561187,737.894471 189.55687,723.640579 C189.554381,715.444591 187.858717,707.782611 184.469872,700.654639 C181.081028,693.526667 176.533825,687.200125 170.828262,681.675014 C165.122699,676.149902 158.437051,671.515362 150.771317,667.771393 C143.105582,664.027424 134.994475,661.085101 126.437994,658.944425 L126.43767,657.875383 C144.260917,653.248269 159.231274,645.502253 171.348742,634.637333 C183.46621,623.772414 189.522406,609.965792 189.517328,593.21747 C189.513007,578.963578 186.479279,567.292286 180.416143,558.203593 C174.353007,549.114901 167.666251,540.827801 160.355876,533.342293 C153.0455,525.856786 146.358988,518.371467 140.296338,510.886337 C134.233688,503.401208 131.200688,494.13526 131.19734,483.088494 C131.194639,474.179812 133.064229,467.587954 136.806109,463.312921 C140.54799,459.037887 145.092385,456.099399 150.439294,454.497457 C155.786203,452.895515 161.578999,452.184575 167.81768,452.364639 C174.056362,452.544704 179.671154,452.635492 184.662057,452.637004 C186.443442,449.074071 187.333594,445.510868 187.332514,441.947396 C187.331649,439.096617 186.261468,436.780036 184.12197,434.997651 C181.982472,433.215266 179.308504,432.322615 176.100067,432.322615 C171.465657,432.322615 165.673132,433.923019 158.72249,437.128038 C151.771849,440.333057 145.088928,444.696286 138.673728,450.217725 C132.258528,455.739163 126.73483,462.15174 122.102636,469.455455 C117.470441,476.759171 115.155532,484.330848 115.157908,492.170489 C115.161581,504.286297 117.9274,514.175771 123.455364,521.838913 C128.983329,529.502054 135.135021,536.71995 141.910441,543.492601 C148.68586,550.265252 154.837526,557.394061 160.365436,564.879029 C165.893346,572.363996 168.659084,581.98621 168.662649,593.745671 C168.665673,603.723395 166.440293,612.631402 161.986506,620.469693 C157.53272,628.307983 152.009023,634.72056 145.415414,639.707423 C138.821806,644.694287 131.51486,648.522806 123.494577,651.19298 C115.474295,653.863154 107.899223,655.197161 100.769363,655.195 L100.771307,661.609252 C107.901167,661.611412 115.477049,662.95001 123.498952,665.625045 C131.520856,668.300081 138.830178,672.311202 145.426919,677.65841 C152.02366,683.005618 157.551274,689.51063 162.009759,697.173447 C166.468244,704.836265 168.698945,713.478362 168.701862,723.099738 C168.705427,734.859199 165.945522,744.479739 160.422149,751.961358 C154.898776,759.442976 148.929651,766.479026 142.514775,773.069506 C136.099899,779.659987 130.130829,786.87421 124.607564,794.712176 C119.084298,802.550142 116.324394,812.170682 116.327851,823.573795 C116.330227,831.413436 118.560604,838.986491 123.018982,846.292961 C127.477359,853.599431 132.915822,860.015329 139.334371,865.540657 C145.752919,871.065984 152.349364,875.433237 159.123703,878.642415 C165.898043,881.851593 171.602417,883.45829 176.236827,883.45829 Z" transform="translate(145.163116, 657.890452) rotate(-28.000000) translate(-145.163116, -657.890452)"/><path id="{-copy-2" fill="#FFF" fill-rule="nonzero" stroke="#FFF" stroke-width="5" d="M926.877171,883.45829 C930.085608,883.45829 932.759036,882.569203 934.897454,880.788115 C937.035872,879.007026 938.104649,876.691093 938.103784,873.840315 C938.102704,870.276842 937.210391,866.713099 935.426846,863.149086 L917.245702,863.143576 L917.245702,863.143576 C911.18532,863.14174 905.481189,862.33823 900.133308,860.733047 C894.785426,859.127864 890.417496,856.186675 887.029516,851.909482 C883.641536,847.632288 881.946249,841.217523 881.943657,832.665188 C881.940524,822.331117 884.968014,813.423353 891.026127,805.941896 C897.08424,798.460439 903.766215,790.979172 911.072054,783.498093 C918.377892,776.017014 925.059625,767.733965 931.117251,758.648946 C937.174878,749.563926 940.201531,737.894471 940.197214,723.640579 C940.194725,715.444591 938.499061,707.782611 935.110217,700.654639 C931.721372,693.526667 927.174169,687.200125 921.468606,681.675014 C915.763044,676.149902 909.077395,671.515362 901.411661,667.771393 C893.745927,664.027424 885.634819,661.085101 877.078339,658.944425 L877.078015,657.875383 C894.901261,653.248269 909.871619,645.502253 921.989087,634.637333 C934.106554,623.772414 940.16275,609.965792 940.157673,593.21747 C940.153352,578.963578 937.119623,567.292286 931.056487,558.203593 C924.993351,549.114901 918.306595,540.827801 910.99622,533.342293 C903.685845,525.856786 896.999332,518.371467 890.936682,510.886337 C884.874032,503.401208 881.841033,494.13526 881.837684,483.088494 C881.834983,474.179812 883.704573,467.587954 887.446454,463.312921 C891.188334,459.037887 895.732729,456.099399 901.079638,454.497457 C906.426547,452.895515 912.219343,452.184575 918.458025,452.364639 C924.696707,452.544704 930.311499,452.635492 935.302401,452.637004 C937.083786,449.074071 937.973938,445.510868 937.972858,441.947396 C937.971994,439.096617 936.901812,436.780036 934.762314,434.997651 C932.622816,433.215266 929.948848,432.322615 926.740411,432.322615 C922.106002,432.322615 916.313476,433.923019 909.362835,437.128038 C902.412193,440.333057 895.729272,444.696286 889.314072,450.217725 C882.898872,455.739163 877.375175,462.15174 872.74298,469.455455 C868.110785,476.759171 865.795876,484.330848 865.798253,492.170489 C865.801926,504.286297 868.567744,514.175771 874.095709,521.838913 C879.623673,529.502054 885.775365,536.71995 892.550785,543.492601 C899.326205,550.265252 905.47787,557.394061 911.00578,564.879029 C916.533691,572.363996 919.299428,581.98621 919.302993,593.745671 C919.306018,603.723395 917.080637,612.631402 912.626851,620.469693 C908.173065,628.307983 902.649367,634.72056 896.055759,639.707423 C889.46215,644.694287 882.155204,648.522806 874.134922,651.19298 C866.114639,653.863154 858.539567,655.197161 851.409707,655.195 L851.411651,661.609252 C858.541512,661.611412 866.117394,662.95001 874.139297,665.625045 C882.1612,668.300081 889.470522,672.311202 896.067263,677.65841 C902.664005,683.005618 908.191618,689.51063 912.650103,697.173447 C917.108588,704.836265 919.339289,713.478362 919.342206,723.099738 C919.345771,734.859199 916.585867,744.479739 911.062493,751.961358 C905.53912,759.442976 899.569995,766.479026 893.15512,773.069506 C886.740244,779.659987 880.771173,786.87421 875.247908,794.712176 C869.724643,802.550142 866.964738,812.170682 866.968195,823.573795 C866.970572,831.413436 869.200949,838.986491 873.659326,846.292961 C878.117703,853.599431 883.556166,860.015329 889.974715,865.540657 C896.393264,871.065984 902.989708,875.433237 909.764047,878.642415 C916.538387,881.851593 922.242762,883.45829 926.877171,883.45829 Z" transform="translate(895.803461, 657.890452) scale(-1, 1) rotate(-28.000000) translate(-895.803461, -657.890452)"/><polygon id="a" fill="#000" points="494.333 305 435 449.005 494.333 449.005 451.944 553 613 408.995 528.25 408.995 587.583 305"/></g></g></g></svg>